<mxfile host="Electron" modified="2023-09-12T18:28:39.327Z" agent="Mozilla/5.0 (X11; Linux x86_64) AppleWebKit/537.36 (KHTML, like Gecko) draw.io/21.3.7 Chrome/112.0.5615.204 Electron/24.5.0 Safari/537.36" etag="Kta0pzSCOjnwE95Y8Fjh" version="21.3.7" type="device">
  <diagram name="PÃ¡gina-1" id="e_wMtVwAIhW8qXqnuXuG">
    <mxGraphModel dx="1332" dy="561" grid="1" gridSize="10" guides="1" tooltips="1" connect="1" arrows="1" fold="1" page="1" pageScale="1" pageWidth="827" pageHeight="1169" math="0" shadow="0">
      <root>
        <mxCell id="0" />
        <mxCell id="1" parent="0" />
        <mxCell id="6b8WSHH42Ca9wU3Yd8ZC-3" value="API &lt;br&gt;People-Manager&lt;br&gt;&lt;b&gt;&lt;i&gt;/people&lt;/i&gt;&lt;/b&gt;" style="shape=umlLifeline;perimeter=lifelinePerimeter;whiteSpace=wrap;html=1;container=1;dropTarget=0;collapsible=0;recursiveResize=0;outlineConnect=0;portConstraint=eastwest;newEdgeStyle={&quot;edgeStyle&quot;:&quot;elbowEdgeStyle&quot;,&quot;elbow&quot;:&quot;vertical&quot;,&quot;curved&quot;:0,&quot;rounded&quot;:0};autosize=0;resizeWidth=1;resizeHeight=1;" parent="1" vertex="1">
          <mxGeometry x="210" y="40" width="110" height="280" as="geometry" />
        </mxCell>
        <mxCell id="6b8WSHH42Ca9wU3Yd8ZC-4" value="request - POST METHOD" style="html=1;verticalAlign=bottom;endArrow=block;edgeStyle=elbowEdgeStyle;elbow=vertical;curved=0;rounded=0;" parent="1" target="6b8WSHH42Ca9wU3Yd8ZC-3" edge="1">
          <mxGeometry width="80" relative="1" as="geometry">
            <mxPoint x="40" y="120" as="sourcePoint" />
            <mxPoint x="170" y="120" as="targetPoint" />
          </mxGeometry>
        </mxCell>
        <mxCell id="GeL4i5uMI6zp8jUjZJmH-1" value="User" style="shape=umlActor;verticalLabelPosition=bottom;verticalAlign=top;html=1;outlineConnect=0;" parent="1" vertex="1">
          <mxGeometry width="30" height="60" as="geometry" />
        </mxCell>
        <mxCell id="GeL4i5uMI6zp8jUjZJmH-2" value="" style="html=1;points=[];perimeter=orthogonalPerimeter;outlineConnect=0;targetShapes=umlLifeline;portConstraint=eastwest;newEdgeStyle={&quot;edgeStyle&quot;:&quot;elbowEdgeStyle&quot;,&quot;elbow&quot;:&quot;vertical&quot;,&quot;curved&quot;:0,&quot;rounded&quot;:0};" parent="1" vertex="1">
          <mxGeometry x="10" y="80" width="10" height="240" as="geometry" />
        </mxCell>
        <mxCell id="GeL4i5uMI6zp8jUjZJmH-3" value="PeopleManagementRequest" style="html=1;whiteSpace=wrap;" parent="1" vertex="1">
          <mxGeometry x="30" y="120" width="160" height="50" as="geometry" />
        </mxCell>
        <mxCell id="GeL4i5uMI6zp8jUjZJmH-4" value="call method create()" style="html=1;verticalAlign=bottom;endArrow=block;edgeStyle=elbowEdgeStyle;elbow=vertical;curved=0;rounded=0;" parent="1" edge="1" target="G64DORwCMHBJvfR-JeO5-1">
          <mxGeometry width="80" relative="1" as="geometry">
            <mxPoint x="270" y="120" as="sourcePoint" />
            <mxPoint x="445" y="120" as="targetPoint" />
          </mxGeometry>
        </mxCell>
        <mxCell id="G64DORwCMHBJvfR-JeO5-1" value="Service&lt;br&gt;Class" style="shape=umlLifeline;perimeter=lifelinePerimeter;whiteSpace=wrap;html=1;container=1;dropTarget=0;collapsible=0;recursiveResize=0;outlineConnect=0;portConstraint=eastwest;newEdgeStyle={&quot;edgeStyle&quot;:&quot;elbowEdgeStyle&quot;,&quot;elbow&quot;:&quot;vertical&quot;,&quot;curved&quot;:0,&quot;rounded&quot;:0};" vertex="1" parent="1">
          <mxGeometry x="590" y="40" width="100" height="280" as="geometry" />
        </mxCell>
        <mxCell id="G64DORwCMHBJvfR-JeO5-2" value="" style="html=1;points=[];perimeter=orthogonalPerimeter;outlineConnect=0;targetShapes=umlLifeline;portConstraint=eastwest;newEdgeStyle={&quot;edgeStyle&quot;:&quot;elbowEdgeStyle&quot;,&quot;elbow&quot;:&quot;vertical&quot;,&quot;curved&quot;:0,&quot;rounded&quot;:0};" vertex="1" parent="G64DORwCMHBJvfR-JeO5-1">
          <mxGeometry x="46" y="100" width="10" height="40" as="geometry" />
        </mxCell>
        <mxCell id="G64DORwCMHBJvfR-JeO5-3" value="validate request" style="html=1;align=left;spacingLeft=2;endArrow=block;rounded=0;edgeStyle=orthogonalEdgeStyle;curved=0;rounded=0;" edge="1" target="G64DORwCMHBJvfR-JeO5-2" parent="G64DORwCMHBJvfR-JeO5-1">
          <mxGeometry relative="1" as="geometry">
            <mxPoint x="51" y="80" as="sourcePoint" />
            <Array as="points">
              <mxPoint x="81" y="110" />
            </Array>
          </mxGeometry>
        </mxCell>
        <mxCell id="G64DORwCMHBJvfR-JeO5-4" value="" style="html=1;points=[];perimeter=orthogonalPerimeter;outlineConnect=0;targetShapes=umlLifeline;portConstraint=eastwest;newEdgeStyle={&quot;edgeStyle&quot;:&quot;elbowEdgeStyle&quot;,&quot;elbow&quot;:&quot;vertical&quot;,&quot;curved&quot;:0,&quot;rounded&quot;:0};" vertex="1" parent="G64DORwCMHBJvfR-JeO5-1">
          <mxGeometry x="45" y="160" width="10" height="40" as="geometry" />
        </mxCell>
        <mxCell id="G64DORwCMHBJvfR-JeO5-5" value="validate if people already exists" style="html=1;align=left;spacingLeft=2;endArrow=block;rounded=0;edgeStyle=orthogonalEdgeStyle;curved=0;rounded=0;" edge="1" target="G64DORwCMHBJvfR-JeO5-4" parent="G64DORwCMHBJvfR-JeO5-1">
          <mxGeometry relative="1" as="geometry">
            <mxPoint x="50" y="140" as="sourcePoint" />
            <Array as="points">
              <mxPoint x="80" y="170" />
            </Array>
          </mxGeometry>
        </mxCell>
        <mxCell id="G64DORwCMHBJvfR-JeO5-10" value="" style="html=1;points=[];perimeter=orthogonalPerimeter;outlineConnect=0;targetShapes=umlLifeline;portConstraint=eastwest;newEdgeStyle={&quot;edgeStyle&quot;:&quot;elbowEdgeStyle&quot;,&quot;elbow&quot;:&quot;vertical&quot;,&quot;curved&quot;:0,&quot;rounded&quot;:0};" vertex="1" parent="G64DORwCMHBJvfR-JeO5-1">
          <mxGeometry x="46" y="220" width="10" height="40" as="geometry" />
        </mxCell>
        <mxCell id="G64DORwCMHBJvfR-JeO5-11" value="save object" style="html=1;align=left;spacingLeft=2;endArrow=block;rounded=0;edgeStyle=orthogonalEdgeStyle;curved=0;rounded=0;" edge="1" target="G64DORwCMHBJvfR-JeO5-10" parent="G64DORwCMHBJvfR-JeO5-1">
          <mxGeometry relative="1" as="geometry">
            <mxPoint x="51" y="200" as="sourcePoint" />
            <Array as="points">
              <mxPoint x="81" y="230" />
            </Array>
          </mxGeometry>
        </mxCell>
        <mxCell id="G64DORwCMHBJvfR-JeO5-12" value="if invalid request, throws&amp;nbsp;BadRequestViolationException" style="html=1;verticalAlign=bottom;endArrow=open;dashed=1;endSize=8;edgeStyle=elbowEdgeStyle;elbow=vertical;curved=0;rounded=0;" edge="1" parent="1" source="G64DORwCMHBJvfR-JeO5-2" target="6b8WSHH42Ca9wU3Yd8ZC-3">
          <mxGeometry y="-10" relative="1" as="geometry">
            <mxPoint x="630" y="150" as="sourcePoint" />
            <mxPoint x="480" y="150" as="targetPoint" />
            <mxPoint as="offset" />
          </mxGeometry>
        </mxCell>
        <mxCell id="G64DORwCMHBJvfR-JeO5-14" value="if people exists, throws&amp;nbsp;DataIntegratyViolationException" style="html=1;verticalAlign=bottom;endArrow=open;dashed=1;endSize=8;edgeStyle=elbowEdgeStyle;elbow=vertical;curved=0;rounded=0;" edge="1" parent="1" source="G64DORwCMHBJvfR-JeO5-4" target="6b8WSHH42Ca9wU3Yd8ZC-3">
          <mxGeometry y="-10" relative="1" as="geometry">
            <mxPoint x="635" y="210" as="sourcePoint" />
            <mxPoint x="270" y="210" as="targetPoint" />
            <mxPoint as="offset" />
          </mxGeometry>
        </mxCell>
        <mxCell id="G64DORwCMHBJvfR-JeO5-15" value="return http status 201 - CREATED" style="html=1;verticalAlign=bottom;endArrow=open;dashed=1;endSize=8;edgeStyle=elbowEdgeStyle;elbow=vertical;curved=0;rounded=0;" edge="1" parent="1" source="G64DORwCMHBJvfR-JeO5-10" target="6b8WSHH42Ca9wU3Yd8ZC-3">
          <mxGeometry y="-10" relative="1" as="geometry">
            <mxPoint x="610" y="280" as="sourcePoint" />
            <mxPoint x="260" y="280" as="targetPoint" />
            <mxPoint as="offset" />
          </mxGeometry>
        </mxCell>
        <mxCell id="G64DORwCMHBJvfR-JeO5-16" value="API &lt;br&gt;People-Manager&lt;br&gt;&lt;b&gt;&lt;i&gt;/people&lt;/i&gt;&lt;/b&gt;" style="shape=umlLifeline;perimeter=lifelinePerimeter;whiteSpace=wrap;html=1;container=1;dropTarget=0;collapsible=0;recursiveResize=0;outlineConnect=0;portConstraint=eastwest;newEdgeStyle={&quot;edgeStyle&quot;:&quot;elbowEdgeStyle&quot;,&quot;elbow&quot;:&quot;vertical&quot;,&quot;curved&quot;:0,&quot;rounded&quot;:0};autosize=0;resizeWidth=1;resizeHeight=1;" vertex="1" parent="1">
          <mxGeometry x="210" y="400" width="110" height="280" as="geometry" />
        </mxCell>
        <mxCell id="G64DORwCMHBJvfR-JeO5-17" value="request - GET METHOD" style="html=1;verticalAlign=bottom;endArrow=block;edgeStyle=elbowEdgeStyle;elbow=vertical;curved=0;rounded=0;" edge="1" parent="1" target="G64DORwCMHBJvfR-JeO5-16">
          <mxGeometry width="80" relative="1" as="geometry">
            <mxPoint x="40" y="480" as="sourcePoint" />
            <mxPoint x="170" y="480" as="targetPoint" />
          </mxGeometry>
        </mxCell>
        <mxCell id="G64DORwCMHBJvfR-JeO5-18" value="User" style="shape=umlActor;verticalLabelPosition=bottom;verticalAlign=top;html=1;outlineConnect=0;" vertex="1" parent="1">
          <mxGeometry y="360" width="30" height="60" as="geometry" />
        </mxCell>
        <mxCell id="G64DORwCMHBJvfR-JeO5-19" value="" style="html=1;points=[];perimeter=orthogonalPerimeter;outlineConnect=0;targetShapes=umlLifeline;portConstraint=eastwest;newEdgeStyle={&quot;edgeStyle&quot;:&quot;elbowEdgeStyle&quot;,&quot;elbow&quot;:&quot;vertical&quot;,&quot;curved&quot;:0,&quot;rounded&quot;:0};" vertex="1" parent="1">
          <mxGeometry x="10" y="440" width="10" height="240" as="geometry" />
        </mxCell>
        <mxCell id="G64DORwCMHBJvfR-JeO5-21" value="call method read()" style="html=1;verticalAlign=bottom;endArrow=block;edgeStyle=elbowEdgeStyle;elbow=vertical;curved=0;rounded=0;" edge="1" parent="1" target="G64DORwCMHBJvfR-JeO5-22">
          <mxGeometry width="80" relative="1" as="geometry">
            <mxPoint x="270" y="480" as="sourcePoint" />
            <mxPoint x="445" y="480" as="targetPoint" />
          </mxGeometry>
        </mxCell>
        <mxCell id="G64DORwCMHBJvfR-JeO5-22" value="Service&lt;br&gt;Class" style="shape=umlLifeline;perimeter=lifelinePerimeter;whiteSpace=wrap;html=1;container=1;dropTarget=0;collapsible=0;recursiveResize=0;outlineConnect=0;portConstraint=eastwest;newEdgeStyle={&quot;edgeStyle&quot;:&quot;elbowEdgeStyle&quot;,&quot;elbow&quot;:&quot;vertical&quot;,&quot;curved&quot;:0,&quot;rounded&quot;:0};" vertex="1" parent="1">
          <mxGeometry x="590" y="400" width="100" height="280" as="geometry" />
        </mxCell>
        <mxCell id="G64DORwCMHBJvfR-JeO5-25" value="" style="html=1;points=[];perimeter=orthogonalPerimeter;outlineConnect=0;targetShapes=umlLifeline;portConstraint=eastwest;newEdgeStyle={&quot;edgeStyle&quot;:&quot;elbowEdgeStyle&quot;,&quot;elbow&quot;:&quot;vertical&quot;,&quot;curved&quot;:0,&quot;rounded&quot;:0};" vertex="1" parent="G64DORwCMHBJvfR-JeO5-22">
          <mxGeometry x="46" y="100" width="10" height="40" as="geometry" />
        </mxCell>
        <mxCell id="G64DORwCMHBJvfR-JeO5-26" value="searching in db, &lt;br&gt;if people not exists" style="html=1;align=left;spacingLeft=2;endArrow=block;rounded=0;edgeStyle=orthogonalEdgeStyle;curved=0;rounded=0;" edge="1" parent="G64DORwCMHBJvfR-JeO5-22" target="G64DORwCMHBJvfR-JeO5-25">
          <mxGeometry relative="1" as="geometry">
            <mxPoint x="51" y="80" as="sourcePoint" />
            <Array as="points">
              <mxPoint x="81" y="110" />
            </Array>
          </mxGeometry>
        </mxCell>
        <mxCell id="G64DORwCMHBJvfR-JeO5-27" value="" style="html=1;points=[];perimeter=orthogonalPerimeter;outlineConnect=0;targetShapes=umlLifeline;portConstraint=eastwest;newEdgeStyle={&quot;edgeStyle&quot;:&quot;elbowEdgeStyle&quot;,&quot;elbow&quot;:&quot;vertical&quot;,&quot;curved&quot;:0,&quot;rounded&quot;:0};" vertex="1" parent="G64DORwCMHBJvfR-JeO5-22">
          <mxGeometry x="46" y="220" width="10" height="40" as="geometry" />
        </mxCell>
        <mxCell id="G64DORwCMHBJvfR-JeO5-28" value="save object" style="html=1;align=left;spacingLeft=2;endArrow=block;rounded=0;edgeStyle=orthogonalEdgeStyle;curved=0;rounded=0;" edge="1" parent="G64DORwCMHBJvfR-JeO5-22" target="G64DORwCMHBJvfR-JeO5-27">
          <mxGeometry relative="1" as="geometry">
            <mxPoint x="51" y="200" as="sourcePoint" />
            <Array as="points">
              <mxPoint x="81" y="230" />
            </Array>
          </mxGeometry>
        </mxCell>
        <mxCell id="G64DORwCMHBJvfR-JeO5-30" value="if people not exists, throws&amp;nbsp;DataNullOrEmptyException" style="html=1;verticalAlign=bottom;endArrow=open;dashed=1;endSize=8;edgeStyle=elbowEdgeStyle;elbow=vertical;curved=0;rounded=0;" edge="1" parent="1" source="G64DORwCMHBJvfR-JeO5-25" target="G64DORwCMHBJvfR-JeO5-16">
          <mxGeometry y="-10" relative="1" as="geometry">
            <mxPoint x="635" y="570" as="sourcePoint" />
            <mxPoint x="270" y="570" as="targetPoint" />
            <mxPoint as="offset" />
          </mxGeometry>
        </mxCell>
        <mxCell id="G64DORwCMHBJvfR-JeO5-31" value="return a list from people -&amp;nbsp; http status 200 - SUCCESS" style="html=1;verticalAlign=bottom;endArrow=open;dashed=1;endSize=8;edgeStyle=elbowEdgeStyle;elbow=vertical;curved=0;rounded=0;" edge="1" parent="1" source="G64DORwCMHBJvfR-JeO5-27" target="G64DORwCMHBJvfR-JeO5-16">
          <mxGeometry y="-10" relative="1" as="geometry">
            <mxPoint x="610" y="640" as="sourcePoint" />
            <mxPoint x="260" y="640" as="targetPoint" />
            <mxPoint as="offset" />
          </mxGeometry>
        </mxCell>
        <mxCell id="G64DORwCMHBJvfR-JeO5-32" value="API &lt;br&gt;People-Manager&lt;br&gt;&lt;b&gt;&lt;i&gt;/people/{id}&lt;/i&gt;&lt;/b&gt;" style="shape=umlLifeline;perimeter=lifelinePerimeter;whiteSpace=wrap;html=1;container=1;dropTarget=0;collapsible=0;recursiveResize=0;outlineConnect=0;portConstraint=eastwest;newEdgeStyle={&quot;edgeStyle&quot;:&quot;elbowEdgeStyle&quot;,&quot;elbow&quot;:&quot;vertical&quot;,&quot;curved&quot;:0,&quot;rounded&quot;:0};autosize=0;resizeWidth=1;resizeHeight=1;" vertex="1" parent="1">
          <mxGeometry x="210" y="760" width="110" height="280" as="geometry" />
        </mxCell>
        <mxCell id="G64DORwCMHBJvfR-JeO5-33" value="request - PUT METHOD" style="html=1;verticalAlign=bottom;endArrow=block;edgeStyle=elbowEdgeStyle;elbow=vertical;curved=0;rounded=0;" edge="1" parent="1" target="G64DORwCMHBJvfR-JeO5-32">
          <mxGeometry width="80" relative="1" as="geometry">
            <mxPoint x="40" y="840" as="sourcePoint" />
            <mxPoint x="170" y="840" as="targetPoint" />
          </mxGeometry>
        </mxCell>
        <mxCell id="G64DORwCMHBJvfR-JeO5-34" value="User" style="shape=umlActor;verticalLabelPosition=bottom;verticalAlign=top;html=1;outlineConnect=0;" vertex="1" parent="1">
          <mxGeometry y="720" width="30" height="60" as="geometry" />
        </mxCell>
        <mxCell id="G64DORwCMHBJvfR-JeO5-35" value="" style="html=1;points=[];perimeter=orthogonalPerimeter;outlineConnect=0;targetShapes=umlLifeline;portConstraint=eastwest;newEdgeStyle={&quot;edgeStyle&quot;:&quot;elbowEdgeStyle&quot;,&quot;elbow&quot;:&quot;vertical&quot;,&quot;curved&quot;:0,&quot;rounded&quot;:0};" vertex="1" parent="1">
          <mxGeometry x="10" y="800" width="10" height="240" as="geometry" />
        </mxCell>
        <mxCell id="G64DORwCMHBJvfR-JeO5-36" value="Long id,&lt;br&gt;PeopleManagementRequest" style="html=1;whiteSpace=wrap;" vertex="1" parent="1">
          <mxGeometry x="30" y="840" width="160" height="50" as="geometry" />
        </mxCell>
        <mxCell id="G64DORwCMHBJvfR-JeO5-37" value="call method update()" style="html=1;verticalAlign=bottom;endArrow=block;edgeStyle=elbowEdgeStyle;elbow=vertical;curved=0;rounded=0;" edge="1" parent="1" target="G64DORwCMHBJvfR-JeO5-38">
          <mxGeometry width="80" relative="1" as="geometry">
            <mxPoint x="270" y="840" as="sourcePoint" />
            <mxPoint x="445" y="840" as="targetPoint" />
          </mxGeometry>
        </mxCell>
        <mxCell id="G64DORwCMHBJvfR-JeO5-38" value="Service&lt;br&gt;Class" style="shape=umlLifeline;perimeter=lifelinePerimeter;whiteSpace=wrap;html=1;container=1;dropTarget=0;collapsible=0;recursiveResize=0;outlineConnect=0;portConstraint=eastwest;newEdgeStyle={&quot;edgeStyle&quot;:&quot;elbowEdgeStyle&quot;,&quot;elbow&quot;:&quot;vertical&quot;,&quot;curved&quot;:0,&quot;rounded&quot;:0};" vertex="1" parent="1">
          <mxGeometry x="590" y="760" width="100" height="280" as="geometry" />
        </mxCell>
        <mxCell id="G64DORwCMHBJvfR-JeO5-39" value="" style="html=1;points=[];perimeter=orthogonalPerimeter;outlineConnect=0;targetShapes=umlLifeline;portConstraint=eastwest;newEdgeStyle={&quot;edgeStyle&quot;:&quot;elbowEdgeStyle&quot;,&quot;elbow&quot;:&quot;vertical&quot;,&quot;curved&quot;:0,&quot;rounded&quot;:0};" vertex="1" parent="G64DORwCMHBJvfR-JeO5-38">
          <mxGeometry x="46" y="100" width="10" height="40" as="geometry" />
        </mxCell>
        <mxCell id="G64DORwCMHBJvfR-JeO5-40" value="validate request" style="html=1;align=left;spacingLeft=2;endArrow=block;rounded=0;edgeStyle=orthogonalEdgeStyle;curved=0;rounded=0;" edge="1" parent="G64DORwCMHBJvfR-JeO5-38" target="G64DORwCMHBJvfR-JeO5-39">
          <mxGeometry relative="1" as="geometry">
            <mxPoint x="51" y="80" as="sourcePoint" />
            <Array as="points">
              <mxPoint x="81" y="110" />
            </Array>
          </mxGeometry>
        </mxCell>
        <mxCell id="G64DORwCMHBJvfR-JeO5-41" value="" style="html=1;points=[];perimeter=orthogonalPerimeter;outlineConnect=0;targetShapes=umlLifeline;portConstraint=eastwest;newEdgeStyle={&quot;edgeStyle&quot;:&quot;elbowEdgeStyle&quot;,&quot;elbow&quot;:&quot;vertical&quot;,&quot;curved&quot;:0,&quot;rounded&quot;:0};" vertex="1" parent="G64DORwCMHBJvfR-JeO5-38">
          <mxGeometry x="45" y="160" width="10" height="40" as="geometry" />
        </mxCell>
        <mxCell id="G64DORwCMHBJvfR-JeO5-42" value="validate if people already exists" style="html=1;align=left;spacingLeft=2;endArrow=block;rounded=0;edgeStyle=orthogonalEdgeStyle;curved=0;rounded=0;" edge="1" parent="G64DORwCMHBJvfR-JeO5-38" target="G64DORwCMHBJvfR-JeO5-41">
          <mxGeometry relative="1" as="geometry">
            <mxPoint x="50" y="140" as="sourcePoint" />
            <Array as="points">
              <mxPoint x="80" y="170" />
            </Array>
          </mxGeometry>
        </mxCell>
        <mxCell id="G64DORwCMHBJvfR-JeO5-43" value="" style="html=1;points=[];perimeter=orthogonalPerimeter;outlineConnect=0;targetShapes=umlLifeline;portConstraint=eastwest;newEdgeStyle={&quot;edgeStyle&quot;:&quot;elbowEdgeStyle&quot;,&quot;elbow&quot;:&quot;vertical&quot;,&quot;curved&quot;:0,&quot;rounded&quot;:0};" vertex="1" parent="G64DORwCMHBJvfR-JeO5-38">
          <mxGeometry x="46" y="220" width="10" height="40" as="geometry" />
        </mxCell>
        <mxCell id="G64DORwCMHBJvfR-JeO5-44" value="save object" style="html=1;align=left;spacingLeft=2;endArrow=block;rounded=0;edgeStyle=orthogonalEdgeStyle;curved=0;rounded=0;" edge="1" parent="G64DORwCMHBJvfR-JeO5-38" target="G64DORwCMHBJvfR-JeO5-43">
          <mxGeometry relative="1" as="geometry">
            <mxPoint x="51" y="200" as="sourcePoint" />
            <Array as="points">
              <mxPoint x="81" y="230" />
            </Array>
          </mxGeometry>
        </mxCell>
        <mxCell id="G64DORwCMHBJvfR-JeO5-45" value="if invalid request, throws&amp;nbsp;BadRequestViolationException" style="html=1;verticalAlign=bottom;endArrow=open;dashed=1;endSize=8;edgeStyle=elbowEdgeStyle;elbow=vertical;curved=0;rounded=0;" edge="1" parent="1" source="G64DORwCMHBJvfR-JeO5-39" target="G64DORwCMHBJvfR-JeO5-32">
          <mxGeometry y="-10" relative="1" as="geometry">
            <mxPoint x="630" y="870" as="sourcePoint" />
            <mxPoint x="480" y="870" as="targetPoint" />
            <mxPoint as="offset" />
          </mxGeometry>
        </mxCell>
        <mxCell id="G64DORwCMHBJvfR-JeO5-46" value="if people not exists, throws DataNullOrEmptyException" style="html=1;verticalAlign=bottom;endArrow=open;dashed=1;endSize=8;edgeStyle=elbowEdgeStyle;elbow=vertical;curved=0;rounded=0;" edge="1" parent="1" source="G64DORwCMHBJvfR-JeO5-41" target="G64DORwCMHBJvfR-JeO5-32">
          <mxGeometry y="-10" relative="1" as="geometry">
            <mxPoint x="635" y="930" as="sourcePoint" />
            <mxPoint x="270" y="930" as="targetPoint" />
            <mxPoint as="offset" />
          </mxGeometry>
        </mxCell>
        <mxCell id="G64DORwCMHBJvfR-JeO5-47" value="return a people object -&amp;nbsp; http status 200 - SUCCESS" style="html=1;verticalAlign=bottom;endArrow=open;dashed=1;endSize=8;edgeStyle=elbowEdgeStyle;elbow=vertical;curved=0;rounded=0;" edge="1" parent="1" source="G64DORwCMHBJvfR-JeO5-43" target="G64DORwCMHBJvfR-JeO5-32">
          <mxGeometry y="-10" relative="1" as="geometry">
            <mxPoint x="610" y="1000" as="sourcePoint" />
            <mxPoint x="260" y="1000" as="targetPoint" />
            <mxPoint as="offset" />
          </mxGeometry>
        </mxCell>
        <mxCell id="G64DORwCMHBJvfR-JeO5-48" value="API &lt;br&gt;People-Manager&lt;br&gt;&lt;b&gt;&lt;i&gt;/people/{id}&lt;/i&gt;&lt;/b&gt;" style="shape=umlLifeline;perimeter=lifelinePerimeter;whiteSpace=wrap;html=1;container=1;dropTarget=0;collapsible=0;recursiveResize=0;outlineConnect=0;portConstraint=eastwest;newEdgeStyle={&quot;edgeStyle&quot;:&quot;elbowEdgeStyle&quot;,&quot;elbow&quot;:&quot;vertical&quot;,&quot;curved&quot;:0,&quot;rounded&quot;:0};autosize=0;resizeWidth=1;resizeHeight=1;" vertex="1" parent="1">
          <mxGeometry x="210" y="1120" width="110" height="280" as="geometry" />
        </mxCell>
        <mxCell id="G64DORwCMHBJvfR-JeO5-49" value="request - DELETE METHOD" style="html=1;verticalAlign=bottom;endArrow=block;edgeStyle=elbowEdgeStyle;elbow=vertical;curved=0;rounded=0;" edge="1" parent="1" target="G64DORwCMHBJvfR-JeO5-48">
          <mxGeometry width="80" relative="1" as="geometry">
            <mxPoint x="40" y="1200" as="sourcePoint" />
            <mxPoint x="170" y="1200" as="targetPoint" />
          </mxGeometry>
        </mxCell>
        <mxCell id="G64DORwCMHBJvfR-JeO5-50" value="User" style="shape=umlActor;verticalLabelPosition=bottom;verticalAlign=top;html=1;outlineConnect=0;" vertex="1" parent="1">
          <mxGeometry y="1080" width="30" height="60" as="geometry" />
        </mxCell>
        <mxCell id="G64DORwCMHBJvfR-JeO5-51" value="" style="html=1;points=[];perimeter=orthogonalPerimeter;outlineConnect=0;targetShapes=umlLifeline;portConstraint=eastwest;newEdgeStyle={&quot;edgeStyle&quot;:&quot;elbowEdgeStyle&quot;,&quot;elbow&quot;:&quot;vertical&quot;,&quot;curved&quot;:0,&quot;rounded&quot;:0};" vertex="1" parent="1">
          <mxGeometry x="10" y="1160" width="10" height="240" as="geometry" />
        </mxCell>
        <mxCell id="G64DORwCMHBJvfR-JeO5-52" value="call method delete()" style="html=1;verticalAlign=bottom;endArrow=block;edgeStyle=elbowEdgeStyle;elbow=vertical;curved=0;rounded=0;" edge="1" parent="1" target="G64DORwCMHBJvfR-JeO5-53">
          <mxGeometry width="80" relative="1" as="geometry">
            <mxPoint x="270" y="1200" as="sourcePoint" />
            <mxPoint x="445" y="1200" as="targetPoint" />
          </mxGeometry>
        </mxCell>
        <mxCell id="G64DORwCMHBJvfR-JeO5-53" value="Service&lt;br&gt;Class" style="shape=umlLifeline;perimeter=lifelinePerimeter;whiteSpace=wrap;html=1;container=1;dropTarget=0;collapsible=0;recursiveResize=0;outlineConnect=0;portConstraint=eastwest;newEdgeStyle={&quot;edgeStyle&quot;:&quot;elbowEdgeStyle&quot;,&quot;elbow&quot;:&quot;vertical&quot;,&quot;curved&quot;:0,&quot;rounded&quot;:0};" vertex="1" parent="1">
          <mxGeometry x="590" y="1120" width="100" height="280" as="geometry" />
        </mxCell>
        <mxCell id="G64DORwCMHBJvfR-JeO5-54" value="" style="html=1;points=[];perimeter=orthogonalPerimeter;outlineConnect=0;targetShapes=umlLifeline;portConstraint=eastwest;newEdgeStyle={&quot;edgeStyle&quot;:&quot;elbowEdgeStyle&quot;,&quot;elbow&quot;:&quot;vertical&quot;,&quot;curved&quot;:0,&quot;rounded&quot;:0};" vertex="1" parent="G64DORwCMHBJvfR-JeO5-53">
          <mxGeometry x="46" y="100" width="10" height="40" as="geometry" />
        </mxCell>
        <mxCell id="G64DORwCMHBJvfR-JeO5-55" value="searching in db, &lt;br&gt;if people not exists" style="html=1;align=left;spacingLeft=2;endArrow=block;rounded=0;edgeStyle=orthogonalEdgeStyle;curved=0;rounded=0;" edge="1" parent="G64DORwCMHBJvfR-JeO5-53" target="G64DORwCMHBJvfR-JeO5-54">
          <mxGeometry relative="1" as="geometry">
            <mxPoint x="51" y="80" as="sourcePoint" />
            <Array as="points">
              <mxPoint x="81" y="110" />
            </Array>
          </mxGeometry>
        </mxCell>
        <mxCell id="G64DORwCMHBJvfR-JeO5-56" value="" style="html=1;points=[];perimeter=orthogonalPerimeter;outlineConnect=0;targetShapes=umlLifeline;portConstraint=eastwest;newEdgeStyle={&quot;edgeStyle&quot;:&quot;elbowEdgeStyle&quot;,&quot;elbow&quot;:&quot;vertical&quot;,&quot;curved&quot;:0,&quot;rounded&quot;:0};" vertex="1" parent="G64DORwCMHBJvfR-JeO5-53">
          <mxGeometry x="46" y="220" width="10" height="40" as="geometry" />
        </mxCell>
        <mxCell id="G64DORwCMHBJvfR-JeO5-57" value="save object" style="html=1;align=left;spacingLeft=2;endArrow=block;rounded=0;edgeStyle=orthogonalEdgeStyle;curved=0;rounded=0;" edge="1" parent="G64DORwCMHBJvfR-JeO5-53" target="G64DORwCMHBJvfR-JeO5-56">
          <mxGeometry relative="1" as="geometry">
            <mxPoint x="51" y="200" as="sourcePoint" />
            <Array as="points">
              <mxPoint x="81" y="230" />
            </Array>
          </mxGeometry>
        </mxCell>
        <mxCell id="G64DORwCMHBJvfR-JeO5-58" value="if people not exists, throws&amp;nbsp;DataNullOrEmptyException" style="html=1;verticalAlign=bottom;endArrow=open;dashed=1;endSize=8;edgeStyle=elbowEdgeStyle;elbow=vertical;curved=0;rounded=0;" edge="1" parent="1" source="G64DORwCMHBJvfR-JeO5-54" target="G64DORwCMHBJvfR-JeO5-48">
          <mxGeometry y="-10" relative="1" as="geometry">
            <mxPoint x="635" y="1290" as="sourcePoint" />
            <mxPoint x="270" y="1290" as="targetPoint" />
            <mxPoint as="offset" />
          </mxGeometry>
        </mxCell>
        <mxCell id="G64DORwCMHBJvfR-JeO5-59" value="return http status 200 - SUCCESS" style="html=1;verticalAlign=bottom;endArrow=open;dashed=1;endSize=8;edgeStyle=elbowEdgeStyle;elbow=vertical;curved=0;rounded=0;" edge="1" parent="1" source="G64DORwCMHBJvfR-JeO5-56" target="G64DORwCMHBJvfR-JeO5-48">
          <mxGeometry y="-10" relative="1" as="geometry">
            <mxPoint x="610" y="1360" as="sourcePoint" />
            <mxPoint x="260" y="1360" as="targetPoint" />
            <mxPoint as="offset" />
          </mxGeometry>
        </mxCell>
        <mxCell id="G64DORwCMHBJvfR-JeO5-60" value="Long id" style="html=1;whiteSpace=wrap;" vertex="1" parent="1">
          <mxGeometry x="40" y="1200" width="160" height="50" as="geometry" />
        </mxCell>
      </root>
    </mxGraphModel>
  </diagram>
</mxfile>
